<svg xmlns="http://www.w3.org/2000/svg" viewBox="0 0 1280 720" role="img" aria-labelledby="title desc">
  <title id="title">Ford recall thumbnail</title>
  <desc id="desc">A truck silhouette with a warning triangle and bold do not drive text.</desc>
  <rect width="1280" height="720" fill="#151922"/>
  <rect x="0" y="0" width="1280" height="176" fill="#ffbf1f"/>
  <text x="64" y="118" fill="#11131a" font-family="Arial, Helvetica, sans-serif" font-size="72" font-weight="900">DO NOT DRIVE</text>
  <path d="M730 206 L1140 618 H320 Z" fill="#d71920"/>
  <path d="M730 284 L1000 574 H454 Z" fill="#ffbf1f"/>
  <rect x="704" y="360" width="56" height="136" fill="#11131a"/>
  <circle cx="732" cy="542" r="28" fill="#11131a"/>
  <path d="M110 445 L224 336 L640 336 C706 336 758 366 800 414 L852 474 L1010 498 L1030 560 L118 560 Z" fill="#f7f8fa"/>
  <path d="M255 366 H620 C666 366 706 384 735 418 L768 458 H194 Z" fill="#1554ff"/>
  <circle cx="302" cy="560" r="70" fill="#0f1118"/>
  <circle cx="302" cy="560" r="31" fill="#dce0e7"/>
  <circle cx="846" cy="560" r="70" fill="#0f1118"/>
  <circle cx="846" cy="560" r="31" fill="#dce0e7"/>
  <text x="64" y="650" fill="#ffffff" font-family="Arial, Helvetica, sans-serif" font-size="42" font-weight="900">BRONCO SPORT + MAVERICK RECALL</text>
</svg>
